<svg width="1264" height="1080" viewBox="0 0 1264 1080" fill="none" xmlns="http://www.w3.org/2000/svg">
<path d="M716.228 0L716.227 1080M425.21 0L425.21 1080M134.192 0L134.192 1080M1080 237.665L0 237.665M1080 528.683L0 528.683M861.737 0L861.736 1080M570.719 0L570.719 1080M279.701 0L279.701 1080M1080 383.174L0 383.174M1080 674.192L0 674.192M764.731 0L764.73 1080M473.713 0L473.713 1080M182.695 0L182.695 1080M1080 286.168L0 286.168M1080 577.186L0 577.186M910.24 0L910.239 1080M619.222 0L619.222 1080M328.204 0L328.204 1080M1080 431.677L0 431.677M1080 722.695L0 722.695M813.234 0L813.233 1080M522.216 0L522.216 1080M231.198 0L231.198 1080M1080 334.671L0 334.671M1080 625.689L0 625.689M958.743 0L958.742 1080M667.725 0L667.724 1080M376.707 0L376.707 1080M1080 480.18L0 480.18M1080 771.198L0 771.197" stroke="url(#paint0_radial_2004_1422)"/>
<rect x="326" y="44" width="938" height="992" rx="29" fill="#E4E7EC"/>
<path d="M1069.15 660.677H861.992V540.799H1069.15V660.677ZM863.256 659.413H1067.88V542.063H863.256V659.413Z" fill="#E0E0E0"/>
<path d="M1026.41 604.72H889.736V608.726H1026.41V604.72Z" fill="white"/>
<path d="M1035.83 619.66H889.736V624.033H1035.83V619.66Z" fill="white"/>
<path d="M1035.83 634.777H889.736V639.151H1035.83V634.777Z" fill="white"/>
<path d="M937.503 583.017H889.736V593.419H937.503V583.017Z" fill="white"/>
<path d="M1068.52 541.431H862.662V560.517H1068.52V541.431Z" fill="#E0E0E0"/>
<path d="M1052.68 557.661C1052.41 557.408 1055.07 554.21 1058.59 550.519C1062.12 546.828 1065.22 544.035 1065.47 544.275C1065.72 544.515 1063.08 547.726 1059.55 551.429C1056.03 555.133 1052.93 557.914 1052.68 557.661Z" fill="white"/>
<path d="M1065.5 557.661C1065.24 557.914 1062.16 555.133 1058.62 551.429C1055.08 547.726 1052.44 544.528 1052.7 544.275C1052.97 544.022 1056.04 546.803 1059.58 550.519C1063.12 554.235 1065.74 557.408 1065.5 557.661Z" fill="white"/>
<path d="M814.238 304.039H608.383V422.666H814.238V304.039Z" fill="#E6E6E6"/>
<path d="M772.147 367.34H635.47V371.347H772.147V367.34Z" fill="white"/>
<path d="M781.563 382.281H635.47V386.654H781.563V382.281Z" fill="white"/>
<path d="M781.563 397.398H635.47V401.772H781.563V397.398Z" fill="white"/>
<path d="M683.237 345.637H635.47V356.04H683.237V345.637Z" fill="white"/>
<path d="M814.238 304.039H608.383V323.126H814.238V304.039Z" fill="#E0E0E0"/>
<path d="M797.705 320.18C797.439 319.94 800.094 316.73 803.62 313.039C807.147 309.348 810.244 306.555 810.497 306.807C810.749 307.06 808.108 310.258 804.581 313.949C801.054 317.64 797.958 320.408 797.705 320.18Z" fill="white"/>
<path d="M810.497 320.18C810.244 320.433 807.16 317.652 803.62 313.949C800.081 310.245 797.439 307.06 797.705 306.807C797.97 306.555 801.042 309.335 804.581 313.039C808.12 316.742 810.762 319.94 810.497 320.18Z" fill="white"/>
<path d="M736.274 524.405H529.155V404.515H736.274V524.405ZM530.419 523.141H735.01V405.779H530.419V523.141Z" fill="#E0E0E0"/>
<path d="M693.551 468.448H556.875V472.455H693.551V468.448Z" fill="white"/>
<path d="M702.968 483.388H556.875V487.762H702.968V483.388Z" fill="white"/>
<path d="M702.968 498.506H556.875V502.879H702.968V498.506Z" fill="white"/>
<path d="M604.642 446.745H556.875V457.147H604.642V446.745Z" fill="white"/>
<path d="M735.642 405.147H529.787V424.233H735.642V405.147Z" fill="#E0E0E0"/>
<path d="M975.309 551.872H732.242V769.482H975.309V551.872Z" fill="#E6E6E6"/>
<path d="M744.465 483.325H554.056V681.154H744.465V483.325Z" fill="white"/>
<path d="M744.465 483.325H554.056V504.876H744.465V483.325Z" fill="#E0E0E0"/>
<path d="M569.78 493.879C569.746 494.661 569.482 495.415 569.023 496.048C568.564 496.681 567.928 497.166 567.196 497.441C566.464 497.716 565.667 497.771 564.904 497.597C564.141 497.424 563.446 497.03 562.905 496.465C562.364 495.9 562.001 495.188 561.861 494.419C561.72 493.649 561.809 492.855 562.116 492.136C562.423 491.416 562.934 490.803 563.587 490.371C564.239 489.939 565.004 489.709 565.786 489.708C566.868 489.735 567.895 490.188 568.644 490.97C569.392 491.751 569.801 492.797 569.78 493.879Z" fill="white"/>
<path d="M585.997 493.879C585.965 494.665 585.703 495.423 585.243 496.06C584.783 496.697 584.145 497.185 583.41 497.463C582.675 497.741 581.875 497.796 581.108 497.623C580.342 497.449 579.643 497.054 579.1 496.486C578.556 495.919 578.192 495.204 578.051 494.43C577.911 493.657 578.001 492.86 578.31 492.137C578.62 491.415 579.135 490.799 579.791 490.368C580.448 489.936 581.217 489.706 582.003 489.708C583.085 489.735 584.112 490.188 584.86 490.97C585.609 491.751 586.018 492.797 585.997 493.879Z" fill="white"/>
<path d="M602.214 493.879C602.182 494.665 601.92 495.423 601.46 496.06C601 496.697 600.363 497.185 599.628 497.463C598.892 497.741 598.092 497.796 597.325 497.623C596.559 497.449 595.861 497.054 595.317 496.486C594.773 495.919 594.409 495.204 594.268 494.43C594.128 493.657 594.218 492.86 594.528 492.137C594.837 491.415 595.352 490.799 596.009 490.368C596.665 489.936 597.434 489.706 598.22 489.708C599.302 489.735 600.329 490.188 601.078 490.97C601.826 491.751 602.235 492.797 602.214 493.879Z" fill="white"/>
<path d="M1041.96 347.306H798.893V589.564H1041.96V347.306Z" fill="white"/>
<path d="M1041.96 347.306H798.893V375.683H1041.96V347.306Z" fill="#E0E0E0"/>
<path d="M819.597 361.21C819.553 362.242 819.206 363.237 818.601 364.074C817.995 364.91 817.157 365.55 816.191 365.914C815.225 366.279 814.173 366.351 813.166 366.123C812.159 365.894 811.241 365.375 810.526 364.63C809.812 363.885 809.332 362.946 809.146 361.93C808.961 360.914 809.078 359.866 809.482 358.916C809.887 357.966 810.562 357.156 811.423 356.586C812.284 356.017 813.294 355.712 814.327 355.712C815.754 355.745 817.109 356.342 818.097 357.372C819.085 358.403 819.625 359.783 819.597 361.21Z" fill="white"/>
<path d="M839.404 357.494C840.105 358.255 840.566 359.205 840.731 360.226C840.895 361.248 840.755 362.295 840.329 363.237C839.902 364.18 839.208 364.976 838.332 365.526C837.456 366.077 836.438 366.358 835.404 366.334C834.37 366.309 833.365 365.982 832.516 365.391C831.667 364.8 831.011 363.972 830.629 363.011C830.246 362.05 830.156 360.997 830.368 359.985C830.58 358.972 831.085 358.044 831.82 357.317C832.85 356.336 834.227 355.805 835.649 355.838C837.07 355.871 838.421 356.466 839.404 357.494Z" fill="white"/>
<path d="M862.295 361.21C862.251 362.242 861.904 363.237 861.298 364.074C860.693 364.91 859.855 365.55 858.889 365.914C857.923 366.279 856.871 366.351 855.864 366.123C854.857 365.894 853.939 365.375 853.224 364.63C852.51 363.885 852.03 362.946 851.844 361.93C851.659 360.914 851.775 359.866 852.18 358.916C852.585 357.966 853.26 357.156 854.121 356.586C854.982 356.017 855.992 355.712 857.024 355.712C858.451 355.745 859.807 356.342 860.795 357.372C861.783 358.403 862.322 359.783 862.295 361.21Z" fill="white"/>
<path d="M989.454 833.756C989.454 833.933 901.682 834.085 793.445 834.085C685.209 834.085 597.399 833.933 597.399 833.756C597.399 833.579 685.158 833.428 793.445 833.428C901.732 833.428 989.454 833.592 989.454 833.756Z" fill="#263238"/>
<path d="M903.931 679.017C884.403 665.379 879.979 640.061 880.75 617.296C880.876 613.504 880.459 609.485 882.266 606.16C884.074 602.836 888.296 600.548 891.696 602.141C894.515 603.468 895.741 606.755 897.321 609.472C899.429 613.092 902.518 616.041 906.232 617.979C908.646 619.243 911.642 620.001 914.031 618.687C917.317 616.879 917.696 612.367 917.671 608.575C917.671 601.522 917.629 594.477 917.545 587.441C917.318 583.662 917.702 579.872 918.682 576.216C919.858 572.627 922.474 569.302 926.051 568.291C929.629 567.28 934.09 569.365 934.899 573.056C935.039 574.62 935.077 576.19 935.013 577.758C935.114 579.338 935.847 581.07 937.326 581.55C938.805 582.031 940.347 580.931 941.485 579.819C945.378 576.027 948.032 571.084 950.497 566.205C952.962 561.326 955.376 556.308 958.915 552.15C962.455 547.991 967.346 544.692 972.819 544.376C978.293 544.06 983.993 547.422 985.358 552.731C986.723 558.04 983.627 563.463 980.302 567.773C975.286 574.171 969.373 579.812 962.745 584.521C961.452 585.227 960.419 586.331 959.8 587.668C958.979 590.196 961.368 592.724 963.858 593.52C966.676 594.456 969.735 594.165 972.706 594.519C975.676 594.873 978.836 596.162 979.961 598.943C981.503 602.811 978.267 606.856 975.095 609.51C968.724 614.819 961.49 618.996 953.708 621.859C950.927 622.871 948.007 623.768 945.757 625.715C943.507 627.661 942.167 631.061 943.52 633.728C944.872 636.395 948.348 637.242 951.268 636.699C954.188 636.155 956.779 634.588 959.56 633.539C964.755 631.58 971.454 631.933 974.728 636.421C975.742 637.966 976.384 639.726 976.604 641.562C976.823 643.398 976.614 645.259 975.992 647C974.727 650.465 972.78 653.642 970.266 656.341C961.987 666.232 951.231 673.748 939.096 678.12C927.05 682.291 915.889 683.429 903.919 679.043" fill="#0ABE6A"/>
<path d="M979.797 547.498C979.797 547.498 979.683 547.625 979.43 547.852L978.305 548.851C977.319 549.735 975.866 551.025 974.033 552.731C968.837 557.556 964.011 562.766 959.598 568.316C956.779 571.818 953.86 575.787 950.75 580.097C947.641 584.407 944.43 589.059 941.245 594.001C937.849 599.212 934.739 604.605 931.929 610.155C930.463 613.049 929.174 616.07 927.847 619.154L923.928 628.571C918.763 640.433 914.265 652.573 910.454 664.936C907.384 675.052 905.268 685.432 904.134 695.942C903.399 703.035 903.28 710.178 903.78 717.291C903.982 719.819 904.172 721.753 904.349 723.068C904.425 723.7 904.475 724.205 904.526 724.572V725.09C904.471 724.926 904.433 724.756 904.412 724.585C904.349 724.218 904.273 723.725 904.172 723.093C903.944 721.829 903.704 719.832 903.477 717.304C902.867 710.178 902.909 703.01 903.603 695.892C904.667 685.337 906.737 674.908 909.784 664.747C913.563 652.349 918.049 640.178 923.22 628.293L927.24 618.914C928.567 615.843 929.869 612.796 931.348 609.889C934.177 604.323 937.313 598.917 940.739 593.697C943.975 588.641 947.236 584.066 950.308 579.793C953.379 575.521 956.35 571.527 959.156 568.038C963.614 562.502 968.504 557.329 973.78 552.567C975.651 550.886 977.143 549.622 978.154 548.775L979.329 547.827C979.473 547.701 979.63 547.591 979.797 547.498Z" fill="#263238"/>
<path d="M931.512 609.864C931.334 609.343 931.211 608.805 931.145 608.259C930.943 607.21 930.716 605.731 930.45 603.809C929.907 600.017 929.351 594.822 928.756 589.071C928.162 583.32 927.492 578.112 926.936 574.358C926.646 572.488 926.393 570.983 926.216 569.934C926.078 569.397 926.006 568.845 926.001 568.291C926.219 568.797 926.376 569.328 926.469 569.871C926.747 570.908 927.063 572.399 927.417 574.282C928.137 578.074 928.845 583.231 929.439 588.995C930.033 594.759 930.539 599.815 930.931 603.746C931.12 605.516 931.284 607.02 931.411 608.221C931.509 608.763 931.543 609.314 931.512 609.864Z" fill="#263238"/>
<path d="M980.151 600.788C979.536 600.922 978.909 600.999 978.28 601.016C977.016 601.13 975.221 601.281 972.996 601.534C968.547 602.015 962.429 602.899 955.718 604.163C949.006 605.427 942.976 606.856 938.641 607.955C936.48 608.511 934.735 609.017 933.585 609.358C932.971 609.577 932.335 609.729 931.689 609.813C932.273 609.52 932.882 609.279 933.509 609.093C934.697 608.676 936.416 608.094 938.565 607.475C942.875 606.211 948.905 604.707 955.642 603.418C961.349 602.326 967.107 601.525 972.895 601.016C975.133 600.826 976.94 600.751 978.204 600.725C978.853 600.681 979.506 600.702 980.151 600.788Z" fill="#263238"/>
<path d="M910.403 663.862C910.268 663.679 910.158 663.479 910.075 663.268L909.24 661.511C908.52 659.982 907.547 657.719 906.384 654.951C904.033 649.389 901.037 641.603 897.852 632.957C894.666 624.312 891.734 616.525 889.509 610.9C888.422 608.17 887.525 605.933 886.855 604.264L886.147 602.457C886.049 602.249 885.981 602.027 885.945 601.8C886.08 601.983 886.19 602.182 886.273 602.394L887.108 604.151C887.816 605.68 888.801 607.943 889.964 610.711C892.315 616.272 895.311 624.059 898.496 632.704C901.682 641.35 904.614 649.136 906.839 654.761C907.926 657.492 908.823 659.729 909.48 661.397C909.771 662.118 910.011 662.661 910.201 663.205C910.299 663.413 910.367 663.635 910.403 663.862Z" fill="#263238"/>
<path d="M974.968 643.044C974.766 643.16 974.549 643.249 974.324 643.309L972.453 643.941L965.539 646.179C959.699 648.075 951.635 650.78 942.787 653.763C933.939 656.746 925.837 659.4 919.959 661.17C917.027 662.067 914.638 662.75 912.982 663.205L911.073 663.698C910.851 663.768 910.622 663.815 910.391 663.837C910.593 663.721 910.81 663.631 911.035 663.571L912.906 662.939L919.82 660.702C925.66 658.806 933.724 656.101 942.572 653.118C951.42 650.135 959.51 647.481 965.387 645.711C968.332 644.814 970.709 644.131 972.377 643.676L974.286 643.183C974.508 643.113 974.737 643.066 974.968 643.044Z" fill="#263238"/>
<path d="M948.627 336.436L942.117 338.761L939.324 330.255C934.192 314.568 917.836 306.239 902.807 311.535C887.778 316.831 879.777 334.034 884.908 349.72L887.702 358.227L881.167 360.565C878.675 361.532 876.652 363.421 875.517 365.841C874.382 368.261 874.224 371.025 875.075 373.559L893.188 428.91C893.564 430.164 894.188 431.33 895.023 432.338C895.859 433.347 896.888 434.177 898.051 434.779C899.214 435.382 900.485 435.744 901.791 435.846C903.096 435.947 904.409 435.785 905.651 435.369L973.11 411.239C975.635 410.274 977.687 408.368 978.835 405.921C979.983 403.474 980.138 400.677 979.266 398.119L961.14 342.768C960.755 341.517 960.121 340.357 959.277 339.357C958.433 338.356 957.396 337.536 956.228 336.945C955.06 336.354 953.785 336.004 952.479 335.917C951.173 335.829 949.863 336.006 948.627 336.436ZM897.207 345.284C895.823 341.205 896.072 336.749 897.9 332.849C899.729 328.95 902.995 325.909 907.016 324.364C909.001 323.685 911.103 323.413 913.196 323.563C915.288 323.714 917.329 324.285 919.197 325.242C921.064 326.198 922.72 327.521 924.065 329.132C925.41 330.742 926.416 332.607 927.025 334.615L929.806 343.122L899.988 353.79L897.207 345.284ZM935.127 394.403L939.753 408.534C939.838 408.817 939.811 409.123 939.677 409.386C939.543 409.65 939.312 409.852 939.033 409.95L932.549 412.263C932.291 412.334 932.015 412.303 931.779 412.176C931.544 412.049 931.366 411.835 931.285 411.58L926.62 397.512C924.049 397.372 921.581 396.449 919.548 394.868C917.515 393.287 916.013 391.122 915.244 388.664C914.145 385.414 914.346 381.865 915.804 378.76C917.262 375.654 919.866 373.234 923.069 372.005C924.65 371.464 926.324 371.248 927.991 371.368C929.658 371.489 931.283 371.943 932.771 372.705C934.258 373.467 935.577 374.521 936.648 375.803C937.72 377.086 938.522 378.571 939.008 380.17C939.821 382.667 939.888 385.347 939.201 387.882C938.514 390.417 937.103 392.696 935.14 394.441L935.127 394.403Z" fill="#0ABE6A"/>
<path d="M941.826 338.61C941.826 338.787 929.755 343.324 914.739 348.722C899.722 354.119 887.474 358.454 887.411 358.328C887.348 358.202 899.482 353.626 914.511 348.216C929.54 342.806 941.763 338.445 941.826 338.61Z" fill="#263238"/>
<path d="M956.16 340.935C956.216 341.045 956.263 341.159 956.299 341.277C956.4 341.529 956.514 341.858 956.666 342.263C956.995 343.185 957.45 344.462 958.018 346.055L962.872 360.186C964.895 366.177 967.309 373.281 969.988 381.169C971.252 385.125 972.744 389.245 974.134 393.581C974.879 395.815 975.2 398.168 975.082 400.52C974.975 401.744 974.627 402.933 974.059 404.022C973.451 405.106 972.64 406.063 971.67 406.84C969.717 408.266 967.549 409.371 965.248 410.114L958.739 412.453L946.415 416.864L925.546 424.296L911.453 429.251L907.661 430.515L906.649 430.844C906.541 430.892 906.426 430.922 906.308 430.932C906.308 430.932 906.409 430.932 906.624 430.781L907.61 430.389L911.402 428.96L925.42 423.803L946.251 416.219L958.549 411.77L965.059 409.419C967.294 408.706 969.399 407.634 971.29 406.246C972.193 405.525 972.949 404.637 973.515 403.63C974.05 402.623 974.373 401.518 974.463 400.381C974.579 398.115 974.271 395.847 973.553 393.695C972.188 389.397 970.747 385.239 969.445 381.282C966.816 373.382 964.389 366.253 962.468 360.262C960.546 354.271 958.928 349.455 957.816 346.067C957.285 344.411 956.881 343.122 956.552 342.187L956.249 341.176C956.211 341.099 956.181 341.018 956.16 340.935Z" fill="#263238"/>
<path d="M920.566 323.505C920.566 323.505 919.896 323.176 918.657 322.671C916.891 321.992 915.024 321.616 913.133 321.558C910.331 321.462 907.542 321.989 904.968 323.1C901.837 324.484 899.161 326.723 897.245 329.559C895.316 332.388 894.281 335.73 894.274 339.153C894.301 341.959 894.726 344.747 895.538 347.432C896.196 349.733 896.878 351.566 897.333 352.842C897.602 353.491 897.821 354.158 897.991 354.839C897.631 354.233 897.331 353.594 897.093 352.931C896.575 351.667 895.829 349.872 895.096 347.559C894.196 344.845 893.706 342.012 893.642 339.153C893.609 335.601 894.668 332.123 896.676 329.193C898.659 326.253 901.445 323.945 904.702 322.544C907.357 321.427 910.233 320.934 913.108 321.103C915.04 321.202 916.937 321.651 918.707 322.43C919.181 322.649 919.637 322.902 920.073 323.189C920.252 323.268 920.419 323.374 920.566 323.505Z" fill="#263238"/>
<path d="M921.147 372.965C921.349 372.843 921.56 372.737 921.779 372.649C922.412 372.364 923.067 372.131 923.738 371.954C924.804 371.64 925.903 371.453 927.012 371.398C928.521 371.317 930.031 371.545 931.449 372.068C934.685 373.205 937.655 376.504 939.121 380.916C939.824 383.283 939.824 385.804 939.121 388.171C938.341 390.74 936.944 393.08 935.051 394.984L935.127 394.643C936.808 399.256 938.641 404.262 940.537 409.482L940.651 409.798L940.335 409.912L937.44 410.873L931.12 412.983L930.804 413.085L930.703 412.769C928.971 407.536 927.075 402.657 925.647 397.866L925.925 398.081C923.454 397.876 921.098 396.948 919.15 395.414C917.388 394.056 915.943 392.331 914.916 390.358C913.989 388.608 913.527 386.649 913.576 384.67C913.634 382.647 914.139 380.662 915.055 378.857C915.971 377.052 917.274 375.471 918.872 374.229C919.53 373.695 920.268 373.269 921.059 372.965C920.345 373.389 919.653 373.849 918.986 374.343C917.23 375.828 915.886 377.739 915.08 379.892C914.388 381.516 914.065 383.272 914.133 385.036C914.2 386.8 914.658 388.526 915.472 390.092C916.482 391.991 917.892 393.647 919.605 394.946C921.463 396.404 923.71 397.284 926.064 397.474H926.279L926.342 397.664C927.732 402.366 929.641 407.283 931.398 412.541L930.981 412.339L937.301 410.228L940.183 409.255L939.981 409.684C938.097 404.464 936.277 399.446 934.609 394.832V394.643L934.76 394.491C936.598 392.666 937.968 390.424 938.755 387.956C939.425 385.692 939.425 383.281 938.755 381.017C937.377 376.77 934.533 373.547 931.449 372.409C930.083 371.883 928.626 371.638 927.164 371.689C926.072 371.714 924.986 371.862 923.928 372.131C922.044 372.599 921.16 373.028 921.147 372.965Z" fill="#263238"/>
<path d="M882.077 737.933L755.816 737.351C748.525 737.311 741.547 734.378 736.416 729.198C731.285 724.017 728.42 717.012 728.45 709.72L729.79 393.202C729.805 389.589 730.532 386.015 731.929 382.684C733.326 379.352 735.366 376.329 737.932 373.786C740.498 371.244 743.54 369.232 746.884 367.865C750.228 366.499 753.809 365.805 757.421 365.824L883.67 366.405C890.961 366.442 897.94 369.371 903.073 374.549C908.207 379.728 911.075 386.732 911.048 394.023L909.708 710.529C909.693 714.143 908.967 717.718 907.57 721.051C906.173 724.384 904.134 727.409 901.568 729.953C899.002 732.498 895.96 734.512 892.616 735.882C889.272 737.251 885.691 737.947 882.077 737.933Z" fill="#455A64"/>
<path d="M883.48 377.288H859.009C858.211 377.303 857.423 377.475 856.691 377.794C855.959 378.113 855.297 378.574 854.743 379.149C854.189 379.724 853.754 380.403 853.462 381.146C853.17 381.89 853.028 382.683 853.043 383.482V387.918C853.058 388.716 852.916 389.509 852.624 390.252C852.332 390.994 851.896 391.672 851.342 392.246C850.788 392.821 850.126 393.28 849.394 393.598C848.662 393.916 847.875 394.086 847.077 394.099L799.374 393.884C797.76 393.841 796.229 393.16 795.118 391.989C794.006 390.818 793.405 389.254 793.445 387.64V383.204C793.486 381.592 792.887 380.03 791.778 378.859C790.669 377.689 789.141 377.006 787.53 376.959H778.922L757.497 376.858C752.401 376.828 747.501 378.818 743.869 382.393C740.237 385.968 738.17 390.836 738.12 395.932L736.856 704.879C736.845 707.407 737.331 709.913 738.288 712.253C739.244 714.593 740.653 716.721 742.432 718.517C744.211 720.313 746.327 721.741 748.658 722.719C750.989 723.697 753.49 724.206 756.018 724.218L882.014 724.799C884.544 724.811 887.051 724.324 889.392 723.367C891.734 722.41 893.864 721.001 895.661 719.22C897.458 717.439 898.887 715.322 899.866 712.99C900.844 710.657 901.354 708.154 901.366 705.625L902.63 396.678C902.66 391.568 900.66 386.655 897.069 383.019C893.478 379.383 888.59 377.321 883.48 377.288Z" fill="white"/>
<path d="M866.53 683.58L772.842 683.176C771.869 683.176 771.085 682.114 771.098 680.825L771.199 656.316C771.199 655.052 771.995 653.965 772.969 653.965L866.656 654.395C867.196 654.488 867.678 654.786 868.003 655.226C868.328 655.667 868.47 656.216 868.401 656.758L868.312 681.242C868.312 682.544 867.503 683.593 866.53 683.58Z" fill="#0ABE6A"/>
<path d="M803.267 665.641C803.223 665.271 803.045 664.984 802.734 664.779C802.423 664.575 802.041 664.473 801.588 664.473C801.257 664.473 800.968 664.526 800.719 664.633C800.474 664.74 800.281 664.888 800.143 665.075C800.006 665.262 799.938 665.475 799.938 665.714C799.938 665.913 799.986 666.085 800.081 666.228C800.178 666.369 800.302 666.487 800.453 666.582C800.604 666.675 800.762 666.751 800.927 666.812C801.093 666.871 801.245 666.918 801.384 666.955L802.143 667.159C802.337 667.21 802.554 667.281 802.792 667.371C803.033 667.461 803.263 667.584 803.482 667.739C803.704 667.893 803.886 668.09 804.03 668.331C804.173 668.572 804.245 668.867 804.245 669.218C804.245 669.621 804.139 669.986 803.928 670.312C803.718 670.639 803.412 670.898 803.008 671.09C802.606 671.282 802.118 671.378 801.544 671.378C801.009 671.378 800.545 671.292 800.154 671.119C799.764 670.946 799.458 670.705 799.234 670.396C799.012 670.087 798.887 669.729 798.858 669.32H799.792C799.817 669.602 799.911 669.836 800.077 670.021C800.245 670.203 800.457 670.339 800.712 670.429C800.97 670.517 801.247 670.561 801.544 670.561C801.89 670.561 802.2 670.505 802.475 670.393C802.75 670.278 802.968 670.12 803.128 669.918C803.289 669.714 803.369 669.475 803.369 669.203C803.369 668.955 803.3 668.753 803.161 668.597C803.022 668.441 802.84 668.315 802.614 668.217C802.387 668.12 802.143 668.035 801.88 667.962L800.96 667.699C800.376 667.531 799.914 667.292 799.573 666.98C799.233 666.669 799.062 666.261 799.062 665.757C799.062 665.339 799.175 664.974 799.402 664.663C799.63 664.349 799.937 664.105 800.321 663.933C800.708 663.757 801.14 663.67 801.617 663.67C802.099 663.67 802.527 663.756 802.902 663.929C803.277 664.099 803.573 664.333 803.792 664.63C804.014 664.927 804.131 665.264 804.143 665.641H803.267ZM806.638 663.772V671.247H805.733V663.772H806.638ZM814.381 663.772V671.247H813.505L809.431 665.378H809.358V671.247H808.453V663.772H809.329L813.417 669.656H813.49V663.772H814.381ZM821.302 666.108C821.221 665.862 821.116 665.642 820.984 665.447C820.855 665.25 820.701 665.082 820.521 664.944C820.343 664.805 820.141 664.699 819.915 664.626C819.688 664.553 819.44 664.517 819.17 664.517C818.727 664.517 818.325 664.631 817.962 664.86C817.6 665.088 817.311 665.425 817.097 665.871C816.883 666.316 816.776 666.862 816.776 667.509C816.776 668.157 816.884 668.703 817.101 669.148C817.317 669.593 817.61 669.93 817.98 670.159C818.35 670.388 818.766 670.502 819.229 670.502C819.657 670.502 820.034 670.411 820.36 670.229C820.688 670.044 820.944 669.783 821.126 669.447C821.311 669.109 821.404 668.711 821.404 668.254L821.681 668.312H819.433V667.509H822.28V668.312C822.28 668.928 822.148 669.463 821.886 669.918C821.625 670.373 821.265 670.726 820.805 670.977C820.348 671.225 819.822 671.349 819.229 671.349C818.567 671.349 817.985 671.193 817.484 670.882C816.985 670.57 816.596 670.128 816.316 669.553C816.039 668.979 815.9 668.298 815.9 667.509C815.9 666.918 815.979 666.386 816.137 665.914C816.298 665.44 816.524 665.036 816.816 664.703C817.108 664.369 817.454 664.114 817.853 663.936C818.252 663.759 818.691 663.67 819.17 663.67C819.564 663.67 819.932 663.729 820.272 663.849C820.615 663.965 820.921 664.132 821.189 664.349C821.459 664.563 821.684 664.819 821.864 665.119C822.044 665.416 822.168 665.745 822.236 666.108H821.302ZM831.626 663.772H832.531V668.721C832.531 669.232 832.411 669.688 832.17 670.09C831.932 670.489 831.595 670.804 831.159 671.035C830.723 671.264 830.212 671.378 829.626 671.378C829.04 671.378 828.529 671.264 828.093 671.035C827.658 670.804 827.319 670.489 827.078 670.09C826.84 669.688 826.721 669.232 826.721 668.721V663.772H827.626V668.648C827.626 669.013 827.706 669.338 827.867 669.623C828.027 669.905 828.256 670.128 828.553 670.291C828.852 670.451 829.21 670.531 829.626 670.531C830.042 670.531 830.4 670.451 830.699 670.291C830.998 670.128 831.227 669.905 831.385 669.623C831.546 669.338 831.626 669.013 831.626 668.648V663.772ZM834.339 671.247V663.772H836.865C837.451 663.772 837.93 663.878 838.303 664.09C838.677 664.299 838.955 664.582 839.135 664.94C839.315 665.298 839.405 665.697 839.405 666.137C839.405 666.577 839.315 666.978 839.135 667.338C838.957 667.698 838.682 667.985 838.31 668.199C837.938 668.411 837.461 668.517 836.879 668.517H835.069V667.714H836.85C837.251 667.714 837.574 667.644 837.817 667.506C838.061 667.367 838.237 667.18 838.346 666.944C838.458 666.705 838.514 666.436 838.514 666.137C838.514 665.838 838.458 665.57 838.346 665.334C838.237 665.098 838.059 664.913 837.814 664.779C837.568 664.643 837.242 664.575 836.835 664.575H835.244V671.247H834.339Z" fill="#E8E8E3"/>
<path d="M791.529 468.107L759.02 467.959L758.992 473.925L791.502 474.073L791.529 468.107Z" fill="#0ABE6A"/>
<path opacity="0.1" d="M791.529 468.107L759.02 467.959L758.992 473.925L791.502 474.073L791.529 468.107Z" fill="black"/>
<path d="M886.829 504.737C887.085 504.711 887.336 504.652 887.575 504.56C887.925 504.423 888.229 504.191 888.453 503.889C888.676 503.587 888.81 503.228 888.839 502.854C888.839 500.844 888.839 497.912 888.839 494.145C888.839 492.261 888.839 490.151 888.839 487.825C888.839 487.256 888.839 486.662 888.839 486.068C888.922 485.491 888.796 484.904 888.485 484.412C888.311 484.176 888.085 483.983 887.824 483.85C887.563 483.716 887.274 483.644 886.981 483.641H885.009H866.745L761.024 483.249C760.753 483.245 760.485 483.305 760.243 483.426C760.001 483.547 759.792 483.725 759.633 483.944C759.328 484.439 759.211 485.027 759.305 485.6C759.305 486.864 759.305 488.128 759.305 489.392C759.305 491.92 759.305 494.448 759.305 496.976C759.305 498.24 759.305 499.504 759.305 500.768C759.252 501.357 759.252 501.949 759.305 502.538C759.371 502.79 759.494 503.024 759.665 503.221C759.836 503.418 760.05 503.574 760.29 503.675C760.54 503.775 760.806 503.822 761.074 503.814H767.508L795.581 503.966L843.108 504.257L875.15 504.51L883.859 504.611H886.122C886.64 504.611 886.893 504.611 886.893 504.611H886.122H883.859H875.15H843.108L795.581 504.459L767.508 504.345H761.074C760.72 504.36 760.367 504.299 760.038 504.168C759.705 504.026 759.409 503.81 759.172 503.536C758.936 503.262 758.765 502.938 758.673 502.588C758.599 502.257 758.574 501.916 758.597 501.577V500.642C758.597 499.378 758.597 498.114 758.597 496.85C758.597 494.322 758.597 491.794 758.597 489.266C758.597 488.002 758.597 486.738 758.597 485.474C758.573 485.137 758.573 484.799 758.597 484.463C758.644 484.091 758.788 483.738 759.014 483.439C759.232 483.134 759.52 482.886 759.855 482.716C760.19 482.547 760.56 482.461 760.935 482.465L866.656 483.047L884.921 483.173H886.893C887.24 483.174 887.582 483.258 887.89 483.418C888.198 483.579 888.463 483.811 888.662 484.096C889.019 484.646 889.162 485.306 889.067 485.954C889.067 486.548 889.067 487.142 889.067 487.711C889.067 490.012 889.067 492.122 889.067 494.031C889.067 497.823 888.978 500.73 888.953 502.753C888.922 503.141 888.781 503.513 888.546 503.825C888.311 504.136 887.991 504.374 887.626 504.51C887.387 504.658 887.111 504.737 886.829 504.737Z" fill="#E0E0E0"/>
<path d="M828.243 489.594H768.785V495.169H828.243V489.594Z" fill="#0ABE6A"/>
<path opacity="0.2" d="M828.243 489.594H768.785V495.169H828.243V489.594Z" fill="white"/>
<path d="M791.308 522.533L758.798 522.385L758.771 528.351L791.281 528.499L791.308 522.533Z" fill="#0ABE6A"/>
<path opacity="0.1" d="M791.308 522.533L758.798 522.385L758.771 528.351L791.281 528.499L791.308 522.533Z" fill="black"/>
<path d="M886.008 559.165C886.263 559.134 886.517 559.087 886.766 559.026C887.119 558.914 887.444 558.727 887.719 558.478C887.994 558.23 888.212 557.925 888.359 557.585C888.558 557.075 888.636 556.525 888.587 555.98C888.587 555.373 888.587 554.716 888.587 553.983C888.587 552.516 888.587 550.848 888.587 548.927V540.9C888.647 540.319 888.518 539.734 888.22 539.232C887.908 538.717 887.418 538.334 886.842 538.157C886.213 538.045 885.572 538.011 884.934 538.056H866.745L761.39 537.664C760.824 537.666 760.277 537.873 759.851 538.247C759.426 538.621 759.151 539.137 759.077 539.699C759.077 540.9 759.077 542.227 759.077 543.491C759.077 546.019 759.077 548.547 759.077 551.075C759.077 552.339 759.077 553.603 759.077 554.867C759.03 555.458 759.055 556.052 759.153 556.637C759.311 557.15 759.636 557.594 760.076 557.901C760.543 558.197 761.091 558.339 761.643 558.305H763.4H767.053L795.025 558.444L842.387 558.735L874.316 558.988L883 559.089H885.262H886.021H885.262H883H874.316H842.387L795 559.039L767.028 558.937H761.529C760.846 558.978 760.167 558.796 759.595 558.419C759.02 558.021 758.6 557.436 758.407 556.763C758.294 556.121 758.26 555.467 758.306 554.817C758.306 553.553 758.306 552.289 758.306 551.025C758.306 548.497 758.306 545.969 758.306 543.441C758.306 542.177 758.306 540.913 758.306 539.649C758.398 538.926 758.751 538.262 759.298 537.78C759.844 537.298 760.548 537.033 761.276 537.032L866.631 537.614L884.82 537.753C885.497 537.711 886.177 537.758 886.842 537.892C887.499 538.106 888.053 538.557 888.397 539.156C888.724 539.713 888.866 540.359 888.801 541.001C888.801 541.595 888.801 542.177 888.801 542.758C888.801 545.046 888.801 547.144 888.801 549.078C888.801 551.012 888.801 552.643 888.801 554.134C888.801 554.855 888.801 555.525 888.801 556.144C888.847 556.709 888.756 557.277 888.536 557.8C888.372 558.149 888.135 558.458 887.84 558.707C887.546 558.955 887.201 559.137 886.83 559.241C886.553 559.264 886.275 559.238 886.008 559.165Z" fill="#E0E0E0"/>
<path d="M791.062 579.323L758.553 579.175L758.526 585.141L791.035 585.289L791.062 579.323Z" fill="#0ABE6A"/>
<path opacity="0.1" d="M791.062 579.323L758.553 579.175L758.526 585.141L791.035 585.289L791.062 579.323Z" fill="black"/>
<path d="M885.755 615.931C886.011 615.901 886.264 615.855 886.513 615.792C886.865 615.68 887.189 615.495 887.463 615.249C887.738 615.003 887.957 614.701 888.106 614.364C888.304 613.853 888.382 613.304 888.334 612.759C888.334 612.139 888.334 611.495 888.334 610.749C888.334 609.295 888.334 607.614 888.334 605.693V597.666C888.394 597.085 888.265 596.5 887.967 595.998C887.648 595.492 887.16 595.116 886.589 594.936C885.96 594.819 885.319 594.781 884.681 594.822H866.492L761.137 594.431C760.571 594.432 760.024 594.639 759.598 595.013C759.173 595.388 758.898 595.904 758.824 596.466C758.824 597.73 758.824 598.994 758.824 600.258C758.824 602.786 758.824 605.314 758.824 607.842C758.824 609.106 758.824 610.37 758.824 611.634C758.777 612.22 758.803 612.81 758.9 613.391C759.051 613.906 759.378 614.353 759.823 614.655C760.287 614.958 760.837 615.1 761.39 615.059H766.889L794.861 615.211L842.223 615.501L874.152 615.754L882.835 615.855H885.098C885.603 615.855 885.856 615.855 885.856 615.855C885.856 615.855 885.603 615.855 885.098 615.855H882.835H874.152H842.223L794.861 615.716L766.889 615.603H761.39C760.706 615.649 760.026 615.466 759.456 615.084C758.881 614.686 758.461 614.101 758.268 613.429C758.155 612.786 758.121 612.132 758.167 611.482C758.167 610.218 758.167 608.954 758.167 607.69C758.167 605.162 758.167 602.634 758.167 600.106C758.167 598.842 758.167 597.578 758.167 596.251C758.256 595.529 758.606 594.865 759.151 594.383C759.696 593.901 760.397 593.635 761.125 593.634L866.479 594.216L884.668 594.355C885.345 594.313 886.025 594.36 886.69 594.494C887.347 594.708 887.901 595.159 888.245 595.758C888.572 596.315 888.714 596.961 888.65 597.603C888.65 598.197 888.65 598.791 888.65 599.36C888.65 601.648 888.65 603.746 888.65 605.68C888.65 607.614 888.65 609.245 888.65 610.736C888.65 611.457 888.65 612.127 888.65 612.746C888.698 613.311 888.607 613.88 888.384 614.402C888.22 614.751 887.983 615.06 887.688 615.309C887.394 615.557 887.049 615.739 886.678 615.843C886.381 615.944 886.065 615.974 885.755 615.931Z" fill="#E0E0E0"/>
<path d="M826.974 545.598L767.516 545.328L767.491 550.903L826.949 551.172L826.974 545.598Z" fill="#0ABE6A"/>
<path opacity="0.2" d="M826.974 545.598L767.516 545.328L767.491 550.903L826.949 551.172L826.974 545.598Z" fill="white"/>
<path d="M772.893 605.617C772.855 606.125 772.67 606.612 772.358 607.016C772.047 607.419 771.624 607.723 771.142 607.889C770.66 608.055 770.14 608.075 769.646 607.948C769.153 607.821 768.707 607.552 768.365 607.174C768.023 606.796 767.799 606.326 767.722 605.822C767.645 605.318 767.717 604.802 767.93 604.339C768.143 603.876 768.487 603.485 768.92 603.216C769.353 602.946 769.855 602.81 770.365 602.823C771.069 602.863 771.729 603.178 772.202 603.701C772.676 604.224 772.924 604.912 772.893 605.617Z" fill="#0ABE6A"/>
<path d="M780.945 605.655C780.969 606.011 780.921 606.369 780.801 606.706C780.682 607.042 780.495 607.351 780.251 607.612C780.008 607.873 779.713 608.082 779.385 608.224C779.058 608.367 778.704 608.44 778.347 608.44C777.99 608.44 777.636 608.367 777.309 608.224C776.981 608.082 776.686 607.873 776.443 607.612C776.199 607.351 776.012 607.042 775.893 606.706C775.773 606.369 775.725 606.011 775.749 605.655C775.725 605.299 775.773 604.941 775.893 604.604C776.012 604.267 776.199 603.959 776.443 603.698C776.686 603.436 776.981 603.228 777.309 603.086C777.636 602.943 777.99 602.87 778.347 602.87C778.704 602.87 779.058 602.943 779.385 603.086C779.713 603.228 780.008 603.436 780.251 603.698C780.495 603.959 780.682 604.267 780.801 604.604C780.921 604.941 780.969 605.299 780.945 605.655Z" fill="#0ABE6A"/>
<path d="M789.009 605.693C788.971 606.201 788.786 606.688 788.475 607.091C788.164 607.495 787.741 607.799 787.259 607.965C786.776 608.13 786.256 608.151 785.763 608.024C785.269 607.897 784.823 607.627 784.481 607.249C784.139 606.871 783.916 606.401 783.838 605.897C783.761 605.394 783.833 604.878 784.046 604.415C784.259 603.952 784.603 603.561 785.036 603.292C785.469 603.022 785.971 602.886 786.481 602.899C787.184 602.942 787.842 603.258 788.315 603.78C788.787 604.302 789.037 604.989 789.009 605.693Z" fill="#0ABE6A"/>
<path d="M797.06 605.731C797.023 606.239 796.837 606.725 796.526 607.129C796.215 607.533 795.792 607.837 795.31 608.003C794.828 608.168 794.308 608.189 793.814 608.062C793.32 607.935 792.875 607.665 792.533 607.287C792.191 606.909 791.967 606.439 791.89 605.935C791.812 605.432 791.884 604.916 792.097 604.453C792.31 603.99 792.654 603.599 793.087 603.33C793.52 603.06 794.022 602.924 794.532 602.937C795.235 602.98 795.893 603.296 796.366 603.818C796.839 604.34 797.088 605.027 797.06 605.731Z" fill="#0ABE6A"/>
<path d="M805.112 605.756C805.077 606.265 804.894 606.753 804.584 607.159C804.274 607.564 803.852 607.87 803.37 608.037C802.888 608.205 802.367 608.227 801.872 608.102C801.378 607.976 800.931 607.707 800.588 607.33C800.244 606.952 800.02 606.482 799.941 605.977C799.863 605.473 799.935 604.957 800.148 604.493C800.36 604.029 800.705 603.638 801.138 603.368C801.571 603.098 802.074 602.962 802.584 602.975C803.285 603.018 803.941 603.332 804.414 603.852C804.886 604.371 805.137 605.054 805.112 605.756Z" fill="#0ABE6A"/>
<path d="M813.176 605.794C813.142 606.3 812.96 606.786 812.653 607.19C812.346 607.595 811.928 607.901 811.449 608.071C810.971 608.241 810.453 608.267 809.96 608.146C809.467 608.026 809.02 607.763 808.673 607.392C808.327 607.021 808.097 606.556 808.012 606.056C807.926 605.555 807.989 605.04 808.192 604.575C808.395 604.11 808.73 603.714 809.155 603.436C809.58 603.159 810.077 603.012 810.585 603.013C811.297 603.039 811.969 603.347 812.455 603.868C812.941 604.389 813.2 605.082 813.176 605.794Z" fill="#0ABE6A"/>
<path d="M821.228 605.832C821.253 606.188 821.204 606.546 821.085 606.883C820.966 607.219 820.779 607.528 820.535 607.789C820.291 608.05 819.996 608.259 819.669 608.401C819.341 608.544 818.988 608.617 818.631 608.617C818.273 608.617 817.92 608.544 817.592 608.401C817.265 608.259 816.97 608.05 816.726 607.789C816.483 607.528 816.296 607.219 816.176 606.883C816.057 606.546 816.008 606.188 816.033 605.832C816.008 605.475 816.057 605.118 816.176 604.781C816.296 604.444 816.483 604.136 816.726 603.875C816.97 603.613 817.265 603.405 817.592 603.263C817.92 603.12 818.273 603.047 818.631 603.047C818.988 603.047 819.341 603.12 819.669 603.263C819.996 603.405 820.291 603.613 820.535 603.875C820.779 604.136 820.966 604.444 821.085 604.781C821.204 605.118 821.253 605.475 821.228 605.832Z" fill="#0ABE6A"/>
<path d="M829.28 605.87C829.245 606.376 829.063 606.862 828.757 607.266C828.45 607.671 828.031 607.977 827.553 608.147C827.074 608.317 826.557 608.343 826.063 608.222C825.57 608.102 825.123 607.839 824.777 607.468C824.431 607.096 824.201 606.632 824.115 606.131C824.03 605.631 824.092 605.116 824.296 604.651C824.499 604.186 824.833 603.79 825.259 603.512C825.684 603.235 826.181 603.088 826.689 603.089C827.401 603.115 828.073 603.423 828.559 603.944C829.044 604.465 829.304 605.158 829.28 605.87Z" fill="#0ABE6A"/>
<path d="M837.331 605.908C837.297 606.417 837.113 606.905 836.803 607.31C836.493 607.716 836.071 608.021 835.589 608.189C835.107 608.357 834.586 608.379 834.092 608.253C833.597 608.127 833.15 607.859 832.807 607.481C832.464 607.104 832.239 606.633 832.161 606.129C832.082 605.625 832.154 605.109 832.367 604.645C832.58 604.181 832.924 603.79 833.357 603.52C833.79 603.25 834.293 603.113 834.803 603.127C835.504 603.169 836.161 603.484 836.633 604.003C837.105 604.523 837.356 605.206 837.331 605.908Z" fill="#0ABE6A"/>
<g opacity="0.2">
<path d="M772.893 605.617C772.855 606.125 772.67 606.612 772.358 607.016C772.047 607.419 771.624 607.723 771.142 607.889C770.66 608.055 770.14 608.075 769.646 607.948C769.153 607.821 768.707 607.552 768.365 607.174C768.023 606.796 767.799 606.326 767.722 605.822C767.645 605.318 767.717 604.802 767.93 604.339C768.143 603.876 768.487 603.485 768.92 603.216C769.353 602.946 769.855 602.81 770.365 602.823C771.069 602.863 771.729 603.178 772.202 603.701C772.676 604.224 772.924 604.912 772.893 605.617Z" fill="white"/>
<path d="M780.945 605.655C780.969 606.011 780.921 606.369 780.801 606.706C780.682 607.042 780.495 607.351 780.251 607.612C780.008 607.873 779.713 608.082 779.385 608.224C779.058 608.367 778.704 608.44 778.347 608.44C777.99 608.44 777.636 608.367 777.309 608.224C776.981 608.082 776.686 607.873 776.443 607.612C776.199 607.351 776.012 607.042 775.893 606.706C775.773 606.369 775.725 606.011 775.749 605.655C775.725 605.299 775.773 604.941 775.893 604.604C776.012 604.267 776.199 603.959 776.443 603.698C776.686 603.436 776.981 603.228 777.309 603.086C777.636 602.943 777.99 602.87 778.347 602.87C778.704 602.87 779.058 602.943 779.385 603.086C779.713 603.228 780.008 603.436 780.251 603.698C780.495 603.959 780.682 604.267 780.801 604.604C780.921 604.941 780.969 605.299 780.945 605.655Z" fill="white"/>
<path d="M789.009 605.693C788.971 606.201 788.786 606.688 788.475 607.091C788.164 607.495 787.741 607.799 787.259 607.965C786.776 608.13 786.256 608.151 785.763 608.024C785.269 607.897 784.823 607.627 784.481 607.249C784.139 606.871 783.916 606.401 783.838 605.897C783.761 605.394 783.833 604.878 784.046 604.415C784.259 603.952 784.603 603.561 785.036 603.292C785.469 603.022 785.971 602.886 786.481 602.899C787.184 602.942 787.842 603.258 788.315 603.78C788.787 604.302 789.037 604.989 789.009 605.693Z" fill="white"/>
<path d="M797.06 605.731C797.023 606.239 796.837 606.726 796.526 607.129C796.215 607.533 795.792 607.837 795.31 608.003C794.828 608.168 794.308 608.189 793.814 608.062C793.32 607.935 792.875 607.665 792.533 607.287C792.191 606.909 791.967 606.439 791.89 605.935C791.812 605.432 791.884 604.916 792.097 604.453C792.31 603.99 792.654 603.599 793.087 603.33C793.52 603.06 794.022 602.924 794.532 602.937C795.235 602.98 795.893 603.296 796.366 603.818C796.839 604.34 797.088 605.027 797.06 605.731Z" fill="white"/>
<path d="M805.112 605.756C805.077 606.265 804.893 606.753 804.583 607.159C804.274 607.564 803.851 607.87 803.369 608.037C802.887 608.205 802.367 608.227 801.872 608.102C801.377 607.976 800.931 607.707 800.587 607.33C800.244 606.952 800.019 606.482 799.941 605.977C799.863 605.473 799.934 604.957 800.147 604.493C800.36 604.029 800.704 603.638 801.137 603.368C801.571 603.098 802.074 602.962 802.584 602.975C803.285 603.018 803.941 603.332 804.413 603.852C804.885 604.371 805.136 605.054 805.112 605.756Z" fill="white"/>
<path d="M813.176 605.794C813.142 606.3 812.96 606.786 812.653 607.19C812.346 607.595 811.928 607.901 811.449 608.071C810.971 608.241 810.453 608.267 809.96 608.146C809.467 608.026 809.02 607.763 808.673 607.392C808.327 607.021 808.097 606.556 808.012 606.056C807.926 605.555 807.989 605.041 808.192 604.575C808.395 604.11 808.73 603.714 809.155 603.437C809.58 603.159 810.077 603.012 810.585 603.013C811.297 603.039 811.969 603.347 812.455 603.868C812.941 604.389 813.2 605.082 813.176 605.794Z" fill="white"/>
<path d="M821.228 605.832C821.253 606.188 821.204 606.546 821.085 606.883C820.966 607.219 820.779 607.528 820.535 607.789C820.291 608.05 819.996 608.259 819.669 608.401C819.341 608.544 818.988 608.617 818.631 608.617C818.273 608.617 817.92 608.544 817.592 608.401C817.265 608.259 816.97 608.05 816.726 607.789C816.483 607.528 816.296 607.219 816.176 606.883C816.057 606.546 816.008 606.188 816.033 605.832C816.008 605.476 816.057 605.118 816.176 604.781C816.296 604.444 816.483 604.136 816.726 603.875C816.97 603.613 817.265 603.405 817.592 603.263C817.92 603.12 818.273 603.047 818.631 603.047C818.988 603.047 819.341 603.12 819.669 603.263C819.996 603.405 820.291 603.613 820.535 603.875C820.779 604.136 820.966 604.444 821.085 604.781C821.204 605.118 821.253 605.476 821.228 605.832Z" fill="white"/>
<path d="M829.28 605.87C829.245 606.376 829.063 606.862 828.757 607.266C828.45 607.671 828.031 607.977 827.553 608.147C827.074 608.317 826.557 608.343 826.063 608.222C825.57 608.102 825.123 607.839 824.777 607.468C824.431 607.096 824.201 606.632 824.115 606.131C824.03 605.631 824.092 605.116 824.296 604.651C824.499 604.186 824.833 603.79 825.259 603.512C825.684 603.235 826.181 603.088 826.689 603.089C827.401 603.115 828.073 603.423 828.559 603.944C829.044 604.465 829.304 605.158 829.28 605.87Z" fill="white"/>
<path d="M837.331 605.908C837.297 606.417 837.113 606.905 836.803 607.31C836.493 607.716 836.071 608.022 835.589 608.189C835.107 608.357 834.586 608.379 834.092 608.253C833.597 608.127 833.15 607.859 832.807 607.481C832.464 607.104 832.239 606.633 832.161 606.129C832.082 605.625 832.154 605.109 832.367 604.645C832.58 604.181 832.924 603.79 833.357 603.52C833.79 603.25 834.293 603.113 834.803 603.127C835.504 603.169 836.161 603.484 836.633 604.003C837.105 604.523 837.356 605.206 837.331 605.908Z" fill="white"/>
</g>
<path d="M825.892 423.437C826.77 423.05 827.515 422.414 828.034 421.607C828.553 420.8 828.824 419.858 828.812 418.899C828.845 418.275 828.75 417.651 828.534 417.066C828.318 416.48 827.985 415.944 827.555 415.491C827.125 415.038 826.607 414.677 826.033 414.431C825.46 414.184 824.842 414.057 824.217 414.057C823.593 414.057 822.975 414.184 822.401 414.431C821.827 414.677 821.31 415.038 820.88 415.491C820.45 415.944 820.117 416.48 819.901 417.066C819.684 417.651 819.59 418.275 819.623 418.899C819.603 419.868 819.872 420.821 820.393 421.637C820.915 422.454 821.668 423.098 822.555 423.487C815.477 424.549 815.793 432.234 815.793 432.234L832.528 432.31C832.528 432.31 832.92 424.486 825.892 423.437Z" fill="#0ABE6A"/>
<path opacity="0.1" d="M825.892 423.437C826.77 423.05 827.515 422.414 828.034 421.607C828.553 420.8 828.824 419.858 828.812 418.899C828.845 418.275 828.75 417.651 828.534 417.066C828.318 416.48 827.985 415.944 827.555 415.491C827.125 415.038 826.607 414.677 826.033 414.431C825.46 414.184 824.842 414.057 824.217 414.057C823.593 414.057 822.975 414.184 822.401 414.431C821.827 414.677 821.31 415.038 820.88 415.491C820.45 415.944 820.117 416.48 819.901 417.066C819.684 417.651 819.59 418.275 819.623 418.899C819.603 419.868 819.872 420.821 820.393 421.637C820.915 422.454 821.668 423.098 822.555 423.487C815.477 424.549 815.793 432.234 815.793 432.234L832.528 432.31C832.528 432.31 832.92 424.486 825.892 423.437Z" fill="black"/>
<path d="M853.086 437.267L793.439 436.996L793.407 444.125L853.054 444.396L853.086 437.267Z" fill="#0ABE6A"/>
<path opacity="0.2" d="M853.086 437.267L793.439 436.996L793.407 444.125L853.054 444.396L853.086 437.267Z" fill="white"/>
<path d="M633.802 474.212H633.208L631.489 474.338C630.559 474.394 629.634 474.516 628.721 474.705C628.13 474.788 627.543 474.901 626.964 475.046L625.005 475.589C621.67 476.612 618.524 478.171 615.689 480.203C611.944 482.921 608.816 486.402 606.512 490.416C605.158 492.73 604.081 495.195 603.302 497.76C602.483 500.548 602.012 503.426 601.899 506.33C601.823 507.855 601.849 509.384 601.975 510.905C601.975 511.677 602.19 512.448 602.291 513.231C602.376 514.021 602.524 514.803 602.733 515.57C603.87 520.642 606.176 525.378 609.468 529.401C612.76 533.423 616.946 536.621 621.693 538.739C625.129 540.221 628.811 541.049 632.551 541.178C636.413 541.391 640.28 540.837 643.927 539.548L645.039 539.131H645.191L645.317 539.206L661.256 547.296L660.789 547.701C659.082 542.417 657.439 537.298 655.846 532.381V532.191L655.985 532.052C659.852 528.158 662.722 523.388 664.353 518.148C665.83 513.358 666.261 508.306 665.617 503.334C665.044 498.916 663.624 494.65 661.433 490.77C659.545 487.437 657.11 484.446 654.228 481.922C651.851 479.924 649.221 478.249 646.404 476.942C644.273 476.023 642.054 475.324 639.781 474.856L637.253 474.439L635.42 474.3L634.308 474.224H633.929C634.055 474.21 634.182 474.21 634.308 474.224H635.433L637.266 474.3L639.794 474.667C642.095 475.1 644.345 475.774 646.505 476.676C649.37 477.969 652.048 479.639 654.469 481.644C657.403 484.157 659.89 487.148 661.825 490.492C664.078 494.413 665.542 498.737 666.135 503.22C666.833 508.269 666.432 513.408 664.96 518.287C663.318 523.636 660.404 528.507 656.466 532.482L656.542 532.153C658.134 537.07 659.79 542.189 661.509 547.46L661.749 548.231L661.029 547.865L645.09 539.788H645.368L644.23 540.205C640.513 541.513 636.575 542.08 632.639 541.873C628.819 541.728 625.06 540.871 621.554 539.345C614.867 536.482 609.304 531.504 605.716 525.176C604.065 522.253 602.86 519.101 602.139 515.822C601.942 515.036 601.794 514.238 601.697 513.433C601.595 512.637 601.431 511.853 601.393 511.07C601.051 506.572 601.526 502.05 602.796 497.722C603.595 495.121 604.702 492.626 606.095 490.29C608.454 486.239 611.647 482.736 615.462 480.013C618.343 477.976 621.542 476.43 624.929 475.438L626.913 474.932C627.497 474.797 628.088 474.691 628.683 474.616C629.605 474.445 630.539 474.344 631.476 474.313L633.208 474.249C633.405 474.223 633.604 474.21 633.802 474.212Z" fill="#0ABE6A"/>
<path d="M641.007 503.688H638.668L633.612 496.584V491.92C633.612 491.92 629.997 491.693 630.427 497.798C630.857 503.903 630.427 502.348 630.427 502.348C630.427 502.348 622.755 502.348 622.123 503.043C621.491 503.739 621.453 511.146 621.364 515.279C621.316 516.275 621.602 517.259 622.176 518.075C622.751 518.89 623.582 519.49 624.537 519.779C624.804 519.853 625.081 519.891 625.358 519.893C627.28 519.893 637.05 518.338 637.05 518.338H641.083L641.007 503.688Z" fill="#0ABE6A"/>
<path d="M647.694 502.437L646.253 518.414H642.258V502.765L647.694 502.437Z" fill="#0ABE6A"/>
<path d="M695.333 827.702V816.895L675.956 816.756L675.792 833.099L676.993 833.188C682.34 833.529 704.194 834.034 707.784 832.922C711.778 831.683 695.333 827.702 695.333 827.702Z" fill="#0ABE6A"/>
<path d="M708.239 831.911C708.239 832.088 700.984 832.239 692.047 832.239C683.111 832.239 675.855 832.088 675.855 831.911C675.855 831.734 683.111 831.582 692.047 831.582C700.984 831.582 708.239 831.734 708.239 831.911Z" fill="#263238"/>
<path d="M695.675 829.914C695.511 829.825 695.675 829.256 696.067 828.65C696.459 828.043 696.99 827.79 697.116 827.917C697.242 828.043 696.977 828.523 696.598 829.042C696.219 829.56 695.839 830.002 695.675 829.914Z" fill="#263238"/>
<path d="M696.914 830.622C696.737 830.622 696.825 829.914 697.204 829.244C697.584 828.574 698.089 828.169 698.228 828.271C698.367 828.372 698.14 828.94 697.786 829.535C697.432 830.129 697.078 830.685 696.914 830.622Z" fill="#263238"/>
<path d="M681.695 831.86C681.619 831.86 681.328 831.633 680.911 831.152C680.402 830.535 679.835 829.968 679.218 829.459C678.61 828.974 677.887 828.656 677.119 828.536C676.525 828.46 676.146 828.536 676.108 828.46C676.07 828.384 676.437 828.119 677.132 828.068C678.049 828.049 678.944 828.353 679.66 828.928C680.33 829.474 680.896 830.138 681.328 830.887C681.619 831.443 681.771 831.81 681.695 831.86Z" fill="#263238"/>
<path d="M695.738 827.879C695.827 828.03 695.498 828.41 694.942 828.612C694.386 828.814 693.893 828.738 693.867 828.612C693.842 828.485 694.234 828.22 694.714 828.043C695.195 827.866 695.637 827.727 695.738 827.879Z" fill="#263238"/>
<path d="M695.435 826.83C695.435 827.019 694.929 827.171 694.272 827.184C693.615 827.196 693.096 827.044 693.109 826.868C693.122 826.691 693.64 826.526 694.272 826.514C694.904 826.501 695.41 826.653 695.435 826.83Z" fill="#263238"/>
<path d="M743.05 827.702V816.895L723.673 816.756L723.508 832.935L724.709 833.023C730.056 833.364 751.923 834.034 755.5 832.922C759.494 831.683 743.05 827.702 743.05 827.702Z" fill="#0ABE6A"/>
<path d="M755.955 831.936C755.955 832.113 748.712 832.265 739.763 832.265C730.814 832.265 723.584 832.113 723.584 831.936C723.584 831.759 730.827 831.608 739.763 831.608C748.7 831.608 755.955 831.759 755.955 831.936Z" fill="#263238"/>
<path d="M743.391 829.914C743.239 829.825 743.391 829.256 743.783 828.65C744.175 828.043 744.705 827.79 744.832 827.917C744.958 828.043 744.693 828.523 744.314 829.042C743.934 829.56 743.555 830.002 743.391 829.914Z" fill="#263238"/>
<path d="M744.63 830.622C744.466 830.622 744.541 829.914 744.933 829.244C745.325 828.574 745.818 828.169 745.957 828.271C746.096 828.372 745.856 828.94 745.502 829.535C745.148 830.129 744.807 830.685 744.63 830.622Z" fill="#263238"/>
<path d="M729.411 831.86C729.335 831.86 729.057 831.633 728.627 831.152C728.118 830.535 727.551 829.968 726.933 829.459C726.326 828.974 725.603 828.656 724.835 828.536C724.254 828.46 723.862 828.536 723.824 828.46C723.786 828.384 724.153 828.119 724.848 828.068C725.765 828.049 726.66 828.353 727.376 828.928C728.05 829.471 728.616 830.135 729.044 830.887C729.335 831.443 729.487 831.81 729.411 831.86Z" fill="#263238"/>
<path d="M743.454 827.879C743.543 828.03 743.214 828.41 742.658 828.612C742.102 828.814 741.609 828.738 741.584 828.612C741.558 828.485 741.95 828.22 742.431 828.043C742.911 827.866 743.353 827.727 743.454 827.879Z" fill="#263238"/>
<path d="M743.176 826.83C743.176 827.019 742.671 827.171 742.013 827.184C741.356 827.196 740.85 827.044 740.863 826.868C740.876 826.691 741.381 826.526 742.013 826.514C742.645 826.501 743.176 826.653 743.176 826.83Z" fill="#263238"/>
<path d="M814.44 506.772C813.935 506.254 812.683 506.507 812.683 506.507C812.809 505.779 812.809 505.035 812.683 504.307C812.456 503.6 810.863 503.739 810.863 503.739C810.79 503.142 810.79 502.54 810.863 501.944C810.876 501.812 810.848 501.679 810.782 501.563C810.716 501.448 810.617 501.356 810.497 501.299C809.743 500.992 808.934 500.845 808.12 500.869C807.147 500.174 811.091 494.65 812.557 492.881C814.023 491.111 813.758 489.733 812.456 489.733C811.559 489.733 806.958 495.042 805.542 496.824C804.126 498.607 800.372 503.562 800.246 499.605C800.119 495.649 798.527 492.666 797.528 492.16C796.53 491.655 795.468 492.843 796.011 493.943C796.489 495.192 796.787 496.503 796.896 497.836C797.033 498.898 796.986 499.975 796.757 501.021C796.338 502.967 795.767 504.877 795.051 506.734H794.95C794.95 506.734 767.369 533.19 765.372 535.073C763.59 536.767 727.743 533.063 720.551 532.305C718.107 531.947 715.639 531.778 713.169 531.799C710.047 531.938 709.491 532.381 706.381 532.419C698.528 532.506 690.694 533.195 682.947 534.479C679.438 535.075 676.162 536.624 673.473 538.955C670.785 541.287 668.789 544.312 667.703 547.7C660.46 570.326 644.053 623.882 641.159 653.965C638.971 657.931 636.997 662.011 635.243 666.188C633.208 671.724 633.701 671.914 634.384 672.04C636.229 672.381 638.327 662.446 639.111 664.848C639.895 667.25 635.129 676.692 637.063 676.97C639.591 677.324 641.601 666.858 641.841 666.023C642.081 665.189 643.333 665.455 643.105 666.238C642.739 667.351 639.187 679.144 641.664 679.523C643.029 679.725 643.181 677.235 643.181 677.235C643.181 677.235 645.709 665.948 646.859 666.175C648.01 666.403 646.783 673.064 646.202 675.289C645.621 677.513 646.43 678.638 647.618 678.095C648.427 677.715 650.361 670.953 650.891 668.754C651.422 666.554 652.75 660.462 654.532 663.988C656.314 667.515 659.019 669.563 660.131 669.613C660.382 669.584 660.618 669.481 660.81 669.317C661.001 669.152 661.139 668.935 661.206 668.691C661.272 668.448 661.265 668.19 661.183 667.951C661.102 667.712 660.952 667.503 660.751 667.351C659.794 666.416 658.973 665.353 658.311 664.191C657.721 663.286 657.294 662.285 657.047 661.233C656.538 659.136 656.241 656.993 656.162 654.837L655.96 653.573C658.791 639.555 666.944 598.412 678.712 572.134L683.541 582.069L685.639 589.425L672.771 621.189L727.654 620.469L719.463 588.945L729.411 556.081C740.168 556.321 767.786 556.725 772.387 554.64C778.176 552.112 808.12 514.293 808.12 514.293C810.072 512.776 811.942 511.156 813.72 509.439C813.72 509.439 815.54 507.91 814.44 506.772Z" fill="#FFBE9D"/>
<path d="M670.357 597.717C671.95 592.282 680.128 565.409 680.128 565.409C680.128 565.409 684.147 587.314 683.085 589.956C682.109 592.218 680.955 594.398 679.635 596.478C670.357 610.597 671.57 617.663 671.57 617.663L727.629 615.956C727.755 608.12 723.116 589.893 722.156 586.986C721.195 584.078 724.393 574.56 724.393 574.56C724.393 574.56 730.713 568.127 730.485 564.815C730.365 561.84 729.997 558.881 729.386 555.967L763.514 557.231L762.439 534.1L713.421 529.196C711.715 534.011 696.281 531.648 696.281 531.648C679.622 532.204 678.586 535.263 671.659 540.647C664.732 546.032 653.268 592.244 653.268 592.244L670.357 597.717Z" fill="#0ABE6A"/>
<path d="M703.499 592.244C702.527 592.417 701.538 592.468 700.554 592.395C698.721 592.395 696.206 592.269 693.438 591.991C690.669 591.713 688.167 591.321 686.384 590.967C685.402 590.841 684.438 590.594 683.515 590.234C684.503 590.234 685.489 590.328 686.46 590.512C688.255 590.74 690.745 591.056 693.501 591.334C696.256 591.612 698.759 591.801 700.566 591.928C701.552 591.94 702.534 592.046 703.499 592.244Z" fill="#263238"/>
<path d="M707.342 587.479C706.37 587.955 705.342 588.307 704.283 588.528C699.24 589.853 694.037 590.47 688.824 590.36C687.746 590.396 686.667 590.294 685.614 590.057C686.678 589.923 687.752 589.868 688.824 589.893C690.809 589.83 693.539 589.691 696.547 589.337C699.556 588.983 702.235 588.477 704.131 588.073C705.184 587.791 706.258 587.593 707.342 587.479Z" fill="#263238"/>
<path d="M726.201 566.218C726.175 567.182 726.044 568.14 725.809 569.075C725.48 570.832 724.975 573.233 724.33 575.862C723.685 578.491 723.066 580.918 722.51 582.562C722.286 583.502 721.955 584.414 721.524 585.279C721.594 584.318 721.772 583.369 722.055 582.448C722.535 580.476 723.079 578.201 723.685 575.711C724.292 573.221 724.874 570.945 725.354 568.974C725.525 568.024 725.809 567.099 726.201 566.218Z" fill="#263238"/>
<path d="M670.951 594.494C668.027 594.042 665.141 593.37 662.318 592.484C659.433 591.809 656.603 590.922 653.849 589.83C656.772 590.288 659.657 590.96 662.482 591.839C665.367 592.511 668.198 593.399 670.951 594.494Z" fill="#263238"/>
<path d="M729.992 555.689C729.516 555.771 729.028 555.771 728.551 555.689C727.231 555.554 725.935 555.243 724.696 554.766C722.628 553.989 720.746 552.788 719.17 551.241C717.594 549.693 716.359 547.833 715.545 545.779C714.645 543.52 714.26 541.089 714.42 538.663C714.476 536.662 715.075 534.713 716.152 533.025C716.909 531.888 718.04 531.052 719.35 530.662C719.699 530.565 720.061 530.518 720.424 530.523C720.677 530.523 720.803 530.523 720.803 530.523C720.803 530.523 720.272 530.523 719.425 530.864C718.224 531.308 717.206 532.14 716.531 533.228C714.812 535.933 714.331 540.875 716.164 545.488C717.017 547.664 718.353 549.617 720.07 551.202C721.477 552.498 723.098 553.542 724.861 554.286C726.515 554.94 728.236 555.41 729.992 555.689Z" fill="#263238"/>
<path d="M759.457 556.776C759.14 552.9 759.039 549.009 759.153 545.122C759.054 541.238 759.172 537.351 759.507 533.48C759.824 537.352 759.925 541.239 759.811 545.122C759.917 549.01 759.799 552.901 759.457 556.776Z" fill="#263238"/>
<path d="M713.093 530.611C713.232 527.792 713.523 524.607 713.523 524.607C713.523 524.607 720.5 523.836 720.917 516.631C721.334 509.427 720.917 492.805 720.917 492.805L708.277 486.333L694.247 497.368L696.408 533.392L709.276 534.214C710.259 534.241 711.213 533.877 711.929 533.202C712.645 532.526 713.063 531.595 713.093 530.611Z" fill="#FFBE9D"/>
<path d="M714.344 510.931C714.344 510.931 714.344 511.07 714.231 511.234C714.136 511.353 714.015 511.448 713.876 511.509C713.737 511.571 713.586 511.598 713.434 511.588C712.625 511.588 711.842 510.653 711.563 509.566C711.431 509.039 711.431 508.487 711.563 507.96C711.589 507.73 711.672 507.51 711.805 507.321C711.937 507.131 712.115 506.977 712.322 506.873C712.492 506.803 712.683 506.803 712.853 506.873C712.979 506.936 713.081 507.038 713.143 507.164C713.232 507.379 713.143 507.518 713.143 507.505C713.143 507.493 713.143 507.379 713.017 507.252C712.951 507.162 712.854 507.099 712.744 507.076C712.635 507.052 712.52 507.07 712.423 507.126C712.268 507.22 712.139 507.351 712.049 507.508C711.958 507.665 711.908 507.842 711.905 508.024C711.798 508.494 711.798 508.982 711.905 509.452C712.158 510.438 712.84 511.234 713.447 511.31C713.566 511.326 713.686 511.317 713.802 511.285C713.917 511.252 714.024 511.196 714.117 511.12C714.268 511.019 714.319 510.918 714.344 510.931Z" fill="#EB996E"/>
<path d="M725.253 488.912C724.279 485.6 720.753 483.957 717.542 483.047C712.651 481.656 707.367 481.05 702.589 482.807C697.811 484.564 692.073 487.648 692.073 492.919C689.254 492.691 687.636 495.156 686.524 498.215C685.813 500.078 685.386 502.039 685.26 504.029C684.906 510.931 682.972 520.461 678.497 525.517C675.969 528.336 672.468 530.283 671.027 533.796C669.763 536.843 670.42 540.458 669.245 543.542C668.196 546.26 665.883 548.193 664.189 550.557C662.463 553.239 661.448 556.315 661.238 559.496C661.028 562.678 661.63 565.861 662.988 568.746C664.356 571.557 666.282 574.06 668.648 576.103C671.015 578.146 673.772 579.685 676.753 580.628C682.657 582.424 688.953 582.485 694.891 580.805C699.348 579.739 703.505 577.678 707.051 574.775C710.679 571.813 713.171 567.686 714.104 563.096C715.002 557.939 713.561 552.693 712.486 547.561C709.124 531.344 710.085 530.497 714.332 515.443C714.433 515.178 714.483 514.9 714.559 514.634C714.635 514.369 714.673 514.242 714.724 514.04C714.844 513.445 714.908 512.84 714.913 512.233C714.293 512.463 713.62 512.512 712.972 512.373C712.325 512.234 711.731 511.914 711.26 511.449C710.788 510.953 710.459 510.339 710.307 509.672C710.156 509.004 710.188 508.308 710.401 507.657C710.699 506.945 711.143 506.304 711.705 505.775C712.267 505.246 712.933 504.841 713.662 504.585C715.065 504.004 716.569 503.701 717.947 503.056C720.867 501.666 722.889 498.784 724.267 495.763C725.399 493.669 725.749 491.24 725.253 488.912Z" fill="#263238"/>
<path d="M714.85 511.272C715.117 511.667 715.338 512.091 715.507 512.536C715.886 513.332 716.392 514.457 716.948 515.759L717.049 515.999H716.784L715.52 516.113C714.648 516.113 713.915 516.277 713.055 516.265C712.98 516.248 712.911 516.212 712.853 516.162C712.796 516.111 712.752 516.046 712.726 515.974C712.689 515.859 712.689 515.735 712.726 515.62C712.756 515.45 712.794 515.281 712.84 515.115L713.068 514.217C713.182 513.618 713.36 513.034 713.599 512.473C713.575 513.083 713.486 513.689 713.333 514.28L713.156 515.178C713.093 515.481 712.979 515.949 713.156 515.911C713.788 515.911 714.686 515.772 715.52 515.721L716.784 515.608L716.62 515.886C716.076 514.622 715.621 513.433 715.356 512.612C715.123 512.192 714.952 511.741 714.85 511.272Z" fill="#0ABE6A"/>
<path d="M671.57 617.663L727.629 615.956L752.024 711.186L747.537 820.421H717.896L721.524 713.512L699.846 647.215L703.183 824.656L673.226 825.098L670.079 658.313C669.94 653.674 668.423 643.221 668.992 638.62L671.57 617.663Z" fill="#263238"/>
<path d="M707.304 648.568C706.386 648.625 705.465 648.57 704.561 648.403C702.867 648.201 700.554 647.847 698.013 647.342C695.473 646.836 693.198 646.255 691.554 645.787C690.676 645.594 689.826 645.288 689.026 644.877C689.026 644.687 693.147 645.673 698.203 646.697C703.259 647.721 707.329 648.378 707.304 648.568Z" fill="#455A64"/>
<path d="M747.234 814.43C747.234 814.607 740.522 814.758 732.242 814.758C723.963 814.758 717.239 814.607 717.239 814.43C717.239 814.253 723.951 814.101 732.242 814.101C740.534 814.101 747.234 814.24 747.234 814.43Z" fill="#455A64"/>
<path d="M702.918 820.042C702.918 820.231 696.395 820.371 688.356 820.371C680.317 820.371 673.808 820.231 673.808 820.042C673.808 819.852 680.33 819.713 688.356 819.713C696.383 819.713 702.918 819.865 702.918 820.042Z" fill="#455A64"/>
<path d="M699.05 819.587C698.873 819.587 698.089 780.82 697.293 733.003C696.497 685.186 696.029 646.394 696.193 646.394C696.358 646.394 697.167 685.148 697.95 732.99C698.734 780.833 699.24 819.587 699.05 819.587Z" fill="#455A64"/>
<path d="M743.252 814.43C743.238 814.257 743.238 814.084 743.252 813.911V812.395C743.252 811.03 743.353 809.07 743.429 806.58C743.606 801.524 743.859 794.18 744.175 785.181C744.857 767.08 745.818 742.129 746.867 714.586C746.867 714.321 746.867 714.068 746.867 713.841V713.929C740.231 687.385 734.227 663.293 729.866 645.863L724.81 625.247C724.229 622.833 723.786 620.949 723.47 619.635C723.319 619.015 723.217 618.535 723.129 618.168C723.08 618.004 723.05 617.834 723.041 617.663C723.106 617.822 723.157 617.987 723.192 618.156C723.293 618.51 723.42 618.99 723.597 619.597C723.938 620.861 724.431 622.782 725.063 625.184C726.327 630.063 728.109 637.091 730.334 645.749C734.733 663.167 740.8 687.195 747.524 713.777V713.866C747.524 714.093 747.524 714.359 747.524 714.612C746.399 742.154 745.375 767.093 744.63 785.193C744.238 794.206 743.909 801.499 743.682 806.58C743.555 809.108 743.454 811.03 743.391 812.395C743.391 813.039 743.315 813.545 743.302 813.911C743.304 814.086 743.287 814.259 743.252 814.43Z" fill="#455A64"/>
<path d="M733.582 711.616C731.453 712.316 729.26 712.803 727.035 713.07C724.304 713.537 721.979 713.866 720.93 713.916V713.664C721.271 713.765 721.448 713.828 721.448 713.879C721.448 713.929 721.233 713.879 720.879 713.879H720.121L720.879 713.651C721.865 713.36 724.191 712.88 726.921 712.387C729.111 711.912 731.342 711.654 733.582 711.616Z" fill="#455A64"/>
<path d="M733.064 715.244C731.093 715.334 729.117 715.245 727.161 714.978C725.187 714.938 723.22 714.722 721.284 714.334C725.234 714.011 729.21 714.318 733.064 715.244Z" fill="#455A64"/>
<path opacity="0.2" d="M671.331 619.673C671.994 620.525 672.831 621.228 673.785 621.736C674.739 622.243 675.789 622.544 676.867 622.618C679.125 622.885 681.408 622.843 683.655 622.491C698.127 620.886 713.46 619.407 727.629 615.956C709.288 616.98 689.911 616.639 671.571 617.663L671.381 619.23" fill="black"/>
<g opacity="0.2">
<path d="M690.227 645.521L700.567 685.641L699.846 647.215L690.227 645.521Z" fill="black"/>
</g>
<defs>
<radialGradient id="paint0_radial_2004_1422" cx="0" cy="0" r="1" gradientUnits="userSpaceOnUse" gradientTransform="translate(540 540) rotate(90) scale(540)">
<stop stop-color="#C4C4C4"/>
<stop offset="1" stop-color="#5C5C5C" stop-opacity="0"/>
</radialGradient>
</defs>
</svg>
