<svg width="30" height="31" viewBox="0 0 30 31" fill="none" xmlns="http://www.w3.org/2000/svg">
<path d="M28.1262 15.7915C28.1262 14.7123 28.0368 13.9248 27.8434 13.1082H15.269V17.979H22.6499C22.5012 19.1894 21.6976 21.0123 19.9119 22.2373L19.8868 22.4003L23.8626 25.4187L24.1381 25.4457C26.6678 23.1561 28.1262 19.7873 28.1262 15.7915" fill="#4285F4"/>
<path d="M15.2685 28.625C18.8845 28.625 21.9201 27.4583 24.1375 25.4458L19.9113 22.2374C18.7804 23.0103 17.2625 23.5499 15.2685 23.5499C11.7268 23.5499 8.72092 21.2603 7.6494 18.0957L7.49234 18.1088L3.35826 21.2443L3.3042 21.3915C5.50655 25.6791 10.0304 28.625 15.2685 28.625Z" fill="#34A853"/>
<path d="M7.65021 18.0958C7.36748 17.2792 7.20385 16.4041 7.20385 15.5C7.20385 14.5957 7.36748 13.7208 7.63534 12.9041L7.62785 12.7302L3.44196 9.5444L3.305 9.60824C2.3973 11.3874 1.87646 13.3854 1.87646 15.5C1.87646 17.6145 2.3973 19.6124 3.305 21.3916L7.65021 18.0958" fill="#FBBC05"/>
<path d="M15.2685 7.44997C17.7834 7.44997 19.4798 8.51454 20.4471 9.40419L24.2268 5.7875C21.9055 3.67292 18.8846 2.375 15.2685 2.375C10.0304 2.375 5.50656 5.32081 3.3042 9.60828L7.63455 12.9042C8.72095 9.73958 11.7269 7.44997 15.2685 7.44997" fill="#EB4335"/>
</svg>
